<svg width="143" height="67" viewBox="0 0 143 67" fill="none" xmlns="http://www.w3.org/2000/svg">
<rect x="1.25" y="1.25" width="140.5" height="64.5" rx="11.75" fill="black" stroke="black" stroke-width="2.5"/>
<path d="M28.3098 33H26.1803V19.4484H33.6724V21.4231H28.3098V33ZM36.8515 19.4484H45.4665V33H43.3369V21.4231H38.8456L38.3229 28.3344C38.1938 30.0638 37.8002 31.2964 37.1419 32.032C36.4966 32.7548 35.5738 33.1162 34.3735 33.1162H33.7153V31.0447H34.0832C34.7672 31.0447 35.2705 30.8253 35.5932 30.3865C35.9158 29.9348 36.1159 29.1927 36.1933 28.1602L36.8515 19.4484ZM60.507 33H58.2226L56.9836 29.7476H51.2726L50.0336 33H47.7879L53.1892 19.4484H55.1058L60.507 33ZM56.2673 27.7536L54.1378 22.1975L52.0083 27.7536H56.2673ZM69.4418 25.7402C70.1646 25.9855 70.7389 26.3985 71.1648 26.9792C71.6036 27.5471 71.823 28.2247 71.823 29.012C71.823 29.7734 71.6294 30.4575 71.2423 31.0641C70.868 31.6707 70.3195 32.1482 69.5967 32.4967C68.874 32.8322 68.0157 33 67.0219 33H62.8209V19.4484H66.7702C68.1641 19.4484 69.2547 19.7775 70.042 20.4358C70.8422 21.094 71.2423 21.9652 71.2423 23.0493C71.2423 23.6301 71.0745 24.1657 70.7389 24.6561C70.4163 25.1336 69.9839 25.495 69.4418 25.7402ZM64.9505 21.3263V25.0627H66.7702C67.493 25.0627 68.0544 24.8884 68.4545 24.54C68.8675 24.1915 69.074 23.7398 69.074 23.1848C69.074 22.6427 68.8675 22.1975 68.4545 21.849C68.0415 21.5005 67.4801 21.3263 66.7702 21.3263H64.9505ZM67.0606 31.1028C67.8479 31.1028 68.4739 30.9027 68.9385 30.5026C69.4031 30.0896 69.6354 29.5798 69.6354 28.9732C69.6354 28.3667 69.4031 27.8633 68.9385 27.4632C68.4739 27.0502 67.8479 26.8437 67.0606 26.8437H64.9505V31.1028H67.0606ZM83.2956 25.0046V19.4484H85.4251V33H83.2956V26.9986H76.8489V33H74.7194V19.4484H76.8489V25.0046H83.2956ZM93.3121 24.3851C94.2672 24.3851 95.1061 24.5658 95.8288 24.9271C96.5645 25.2756 97.1324 25.779 97.5324 26.4372C97.9454 27.0825 98.1519 27.831 98.1519 28.6829C98.1519 29.5347 97.9454 30.2897 97.5324 30.9479C97.1324 31.5932 96.5645 32.0966 95.8288 32.4579C95.1061 32.8193 94.2672 33 93.3121 33H89.2079V19.4484H91.3374V24.3851H93.3121ZM99.8362 33V19.4484H101.966V33H99.8362ZM93.2153 31.006C94.08 31.006 94.7511 30.7995 95.2287 30.3865C95.7191 29.9606 95.9643 29.3927 95.9643 28.6829C95.9643 27.973 95.7191 27.4116 95.2287 26.9986C94.7511 26.5727 94.08 26.3597 93.2153 26.3597H91.3374V31.006H93.2153ZM107.868 29.1862L116.134 19.4484H117.528V33H115.399V23.2816L107.151 33H105.738V19.4484H107.868V29.1862ZM111.817 18.3837C110.862 18.3837 110.101 18.1191 109.533 17.5899C108.965 17.0608 108.655 16.3832 108.603 15.5572H110.288C110.339 16.0089 110.501 16.3574 110.772 16.6026C111.056 16.8478 111.404 16.9704 111.817 16.9704C112.243 16.9704 112.591 16.8543 112.862 16.622C113.146 16.3767 113.314 16.0218 113.366 15.5572H115.031C114.979 16.3832 114.669 17.0608 114.101 17.5899C113.534 18.1191 112.772 18.3837 111.817 18.3837ZM48.2062 52.213C46.9156 52.213 45.7282 51.9097 44.6441 51.3031C43.5599 50.6836 42.7017 49.8447 42.0693 48.7863C41.4369 47.7151 41.1207 46.5277 41.1207 45.2242C41.1207 43.9207 41.4369 42.7398 42.0693 41.6815C42.7017 40.6102 43.5599 39.7713 44.6441 39.1647C45.7282 38.5452 46.9156 38.2355 48.2062 38.2355C49.4968 38.2355 50.6777 38.5452 51.749 39.1647C52.8331 39.7713 53.6914 40.6102 54.3238 41.6815C54.9562 42.7398 55.2724 43.9207 55.2724 45.2242C55.2724 46.5277 54.9562 47.7151 54.3238 48.7863C53.6914 49.8447 52.8331 50.6836 51.749 51.3031C50.6777 51.9097 49.4968 52.213 48.2062 52.213ZM48.2062 50.2189C49.1096 50.2189 49.9292 49.9995 50.6648 49.5607C51.4134 49.1219 52.0006 48.5218 52.4265 47.7603C52.8654 46.9988 53.0848 46.1535 53.0848 45.2242C53.0848 44.295 52.8654 43.4496 52.4265 42.6881C52.0006 41.9138 51.4134 41.3072 50.6648 40.8684C49.9292 40.4295 49.1096 40.2101 48.2062 40.2101C47.3028 40.2101 46.4768 40.4295 45.7282 40.8684C44.9796 41.3072 44.3859 41.9138 43.9471 42.6881C43.5212 43.4496 43.3083 44.295 43.3083 45.2242C43.3083 46.1535 43.5212 46.9988 43.9471 47.7603C44.3859 48.5218 44.9796 49.1219 45.7282 49.5607C46.4768 49.9995 47.3028 50.2189 48.2062 50.2189ZM65.9211 39.3777C67.0181 39.3777 68.0313 39.6294 68.9605 40.1327C69.8898 40.6231 70.6254 41.3072 71.1675 42.1848C71.7224 43.0495 71.9999 44.0304 71.9999 45.1274C71.9999 46.2245 71.7224 47.2118 71.1675 48.0894C70.6254 48.9541 69.8898 49.6382 68.9605 50.1415C68.0313 50.6319 67.0181 50.8772 65.9211 50.8772H65.6888V52.5614H63.6173V50.8772H63.385C62.288 50.8772 61.2748 50.6319 60.3456 50.1415C59.4163 49.6382 58.6742 48.9541 58.1193 48.0894C57.5772 47.2118 57.3062 46.2245 57.3062 45.1274C57.3062 44.0304 57.5772 43.0495 58.1193 42.1848C58.6742 41.3072 59.4163 40.6231 60.3456 40.1327C61.2748 39.6294 62.288 39.3777 63.385 39.3777H63.6173V37.9064H65.6888V39.3777H65.9211ZM63.6173 48.9799V41.2555H63.4237C62.701 41.2555 62.0363 41.4104 61.4297 41.7202C60.836 42.0299 60.3649 42.4816 60.0165 43.0753C59.668 43.6561 59.4938 44.3401 59.4938 45.1274C59.4938 45.9147 59.668 46.5987 60.0165 47.1795C60.3649 47.7603 60.836 48.2056 61.4297 48.5153C62.0363 48.8251 62.701 48.9799 63.4237 48.9799H63.6173ZM65.8824 48.9799C66.6051 48.9799 67.2633 48.8251 67.857 48.5153C68.4636 48.2056 68.9411 47.7603 69.2896 47.1795C69.6381 46.5987 69.8123 45.9147 69.8123 45.1274C69.8123 44.3401 69.6381 43.6561 69.2896 43.0753C68.9411 42.4816 68.4636 42.0299 67.857 41.7202C67.2633 41.4104 66.6051 41.2555 65.8824 41.2555H65.6888V48.9799H65.8824ZM76.934 48.1862L85.2004 38.4484H86.5943V52H84.4648V42.2816L76.2177 52H74.8045V38.4484H76.934V48.1862ZM96.6043 52.213C95.3395 52.213 94.1715 51.9097 93.1003 51.3031C92.0291 50.6836 91.1772 49.8447 90.5448 48.7863C89.9124 47.7151 89.5962 46.5277 89.5962 45.2242C89.5962 43.9207 89.9124 42.7333 90.5448 41.6621C91.1772 40.5909 92.0291 39.752 93.1003 39.1454C94.1715 38.5388 95.3395 38.2355 96.6043 38.2355C98.1273 38.2355 99.4566 38.6549 100.592 39.4938C101.741 40.3327 102.567 41.4685 103.07 42.9011H100.844C100.444 42.0751 99.8696 41.4233 99.121 40.9458C98.3854 40.4554 97.5465 40.2101 96.6043 40.2101C95.7138 40.2101 94.9007 40.436 94.165 40.8877C93.4294 41.3265 92.8486 41.9267 92.4227 42.6881C91.9968 43.4496 91.7838 44.295 91.7838 45.2242C91.7838 46.1535 91.9968 46.9988 92.4227 47.7603C92.8486 48.5218 93.4294 49.1219 94.165 49.5607C94.9007 49.9995 95.7138 50.2189 96.6043 50.2189C97.5723 50.2189 98.4241 49.9802 99.1598 49.5026C99.9083 49.0122 100.483 48.3604 100.883 47.5473H103.109C102.606 48.9799 101.78 50.1157 100.631 50.9546C99.4824 51.7935 98.1402 52.213 96.6043 52.213Z" fill="white"/>
</svg>
