<svg width="198" height="67" viewBox="0 0 198 67" fill="none" xmlns="http://www.w3.org/2000/svg">
<rect x="1.25" y="1.25" width="195.5" height="64.5" rx="11.75" fill="black" stroke="black" stroke-width="2.5"/>
<path d="M27.8823 33.213C26.6175 33.213 25.4495 32.9097 24.3783 32.3031C23.307 31.6836 22.4552 30.8447 21.8228 29.7863C21.1904 28.7151 20.8742 27.5277 20.8742 26.2242C20.8742 24.9207 21.1904 23.7333 21.8228 22.6621C22.4552 21.5909 23.307 20.752 24.3783 20.1454C25.4495 19.5388 26.6175 19.2355 27.8823 19.2355C29.4052 19.2355 30.7346 19.6549 31.8703 20.4938C33.019 21.3327 33.845 22.4685 34.3483 23.9011H32.122C31.7219 23.0751 31.1476 22.4233 30.399 21.9458C29.6634 21.4554 28.8245 21.2101 27.8823 21.2101C26.9918 21.2101 26.1787 21.436 25.443 21.8877C24.7074 22.3265 24.1266 22.9267 23.7007 23.6881C23.2748 24.4496 23.0618 25.295 23.0618 26.2242C23.0618 27.1535 23.2748 27.9988 23.7007 28.7603C24.1266 29.5218 24.7074 30.1219 25.443 30.5607C26.1787 30.9995 26.9918 31.2189 27.8823 31.2189C28.8503 31.2189 29.7021 30.9802 30.4377 30.5026C31.1863 30.0122 31.7606 29.3604 32.1607 28.5473H34.387C33.8837 29.9799 33.0577 31.1157 31.909 31.9546C30.7604 32.7935 29.4181 33.213 27.8823 33.213ZM39.2875 33H37.158V19.4484H47.7669V33H45.6374V21.4231H39.2875V33ZM62.8003 33H60.5159L59.2769 29.7476H53.5658L52.3268 33H50.0811L55.4824 19.4484H57.399L62.8003 33ZM58.5606 27.7536L56.431 22.1975L54.3015 27.7536H58.5606ZM70.5727 33.213C69.3079 33.213 68.1399 32.9097 67.0687 32.3031C65.9975 31.6836 65.1457 30.8447 64.5133 29.7863C63.8809 28.7151 63.5646 27.5277 63.5646 26.2242C63.5646 24.9207 63.8809 23.7333 64.5133 22.6621C65.1457 21.5909 65.9975 20.752 67.0687 20.1454C68.1399 19.5388 69.3079 19.2355 70.5727 19.2355C72.0957 19.2355 73.425 19.6549 74.5608 20.4938C75.7094 21.3327 76.5354 22.4685 77.0388 23.9011H74.8124C74.4124 23.0751 73.838 22.4233 73.0895 21.9458C72.3538 21.4554 71.5149 21.2101 70.5727 21.2101C69.6822 21.2101 68.8691 21.436 68.1335 21.8877C67.3978 22.3265 66.817 22.9267 66.3911 23.6881C65.9652 24.4496 65.7523 25.295 65.7523 26.2242C65.7523 27.1535 65.9652 27.9988 66.3911 28.7603C66.817 29.5218 67.3978 30.1219 68.1335 30.5607C68.8691 30.9995 69.6822 31.2189 70.5727 31.2189C71.5407 31.2189 72.3925 30.9802 73.1282 30.5026C73.8767 30.0122 74.4511 29.3604 74.8512 28.5473H77.0775C76.5741 29.9799 75.7481 31.1157 74.5995 31.9546C73.4508 32.7935 72.1086 33.213 70.5727 33.213ZM90.3405 33H88.0561L86.8171 29.7476H81.1061L79.8671 33H77.6214L83.0226 19.4484H84.9392L90.3405 33ZM86.1008 27.7536L83.9712 22.1975L81.8417 27.7536H86.1008ZM95.7602 33H93.6307V21.4231H90.2041V19.4484H99.1868V21.4231H95.7602V33ZM103.79 26.9986V31.006H109.52V33H101.66V19.4484H109.327V21.4231H103.79V25.0046H109.133V26.9986H103.79ZM114.014 19.4484H122.629V33H120.5V21.4231H116.008L115.485 28.3344C115.356 30.0638 114.963 31.2964 114.305 32.032C113.659 32.7548 112.736 33.1162 111.536 33.1162H110.878V31.0447H111.246C111.93 31.0447 112.433 30.8253 112.756 30.3865C113.078 29.9348 113.278 29.1927 113.356 28.1602L114.014 19.4484ZM130.72 24.3851C131.675 24.3851 132.514 24.5658 133.236 24.9271C133.972 25.2756 134.54 25.779 134.94 26.4372C135.353 27.0825 135.559 27.831 135.559 28.6829C135.559 29.5347 135.353 30.2897 134.94 30.9479C134.54 31.5932 133.972 32.0966 133.236 32.4579C132.514 32.8193 131.675 33 130.72 33H126.402V19.4484H128.532V24.3851H130.72ZM130.623 31.006C131.488 31.006 132.159 30.7995 132.636 30.3865C133.127 29.9606 133.372 29.3927 133.372 28.6829C133.372 27.973 133.127 27.4116 132.636 26.9986C132.159 26.5727 131.488 26.3597 130.623 26.3597H128.532V31.006H130.623ZM146.839 25.0046V19.4484H148.969V33H146.839V26.9986H140.393V33H138.263V19.4484H140.393V25.0046H146.839ZM164.019 33H161.734L160.495 29.7476H154.784L153.545 33H151.3L156.701 19.4484H158.618L164.019 33ZM159.779 27.7536L157.65 22.1975L155.52 27.7536H159.779ZM175.064 19.4484V33H172.934V27.6955H171.347L167.61 33H165.036L169.024 27.4439C168.107 27.1599 167.391 26.6759 166.875 25.9919C166.358 25.295 166.1 24.4883 166.1 23.572C166.1 22.7847 166.288 22.0813 166.662 21.4618C167.049 20.8294 167.597 20.339 168.307 19.9905C169.03 19.6291 169.863 19.4484 170.805 19.4484H175.064ZM172.934 25.7015V21.4231H170.805C170.017 21.4231 169.398 21.6231 168.946 22.0232C168.507 22.4233 168.288 22.9396 168.288 23.572C168.288 24.1915 168.507 24.7013 168.946 25.1014C169.398 25.5015 170.017 25.7015 170.805 25.7015H172.934ZM59.1915 52.213C57.9267 52.213 56.7587 51.9097 55.6875 51.3031C54.6163 50.6836 53.7645 49.8447 53.1321 48.7863C52.4997 47.7151 52.1835 46.5277 52.1835 45.2242C52.1835 43.9207 52.4997 42.7333 53.1321 41.6621C53.7645 40.5909 54.6163 39.752 55.6875 39.1454C56.7587 38.5388 57.9267 38.2355 59.1915 38.2355C60.7145 38.2355 62.0438 38.6549 63.1796 39.4938C64.3282 40.3327 65.1542 41.4685 65.6576 42.9011H63.4313C63.0312 42.0751 62.4568 41.4233 61.7083 40.9458C60.9726 40.4554 60.1337 40.2101 59.1915 40.2101C58.301 40.2101 57.4879 40.436 56.7523 40.8877C56.0166 41.3265 55.4358 41.9267 55.0099 42.6881C54.584 43.4496 54.3711 44.295 54.3711 45.2242C54.3711 46.1535 54.584 46.9988 55.0099 47.7603C55.4358 48.5218 56.0166 49.1219 56.7523 49.5607C57.4879 49.9995 58.301 50.2189 59.1915 50.2189C60.1595 50.2189 61.0113 49.9802 61.747 49.5026C62.4955 49.0122 63.0699 48.3604 63.47 47.5473H65.6963C65.193 48.9799 64.367 50.1157 63.2183 50.9546C62.0696 51.7935 60.7274 52.213 59.1915 52.213ZM72.1402 52H70.0107V40.4231H66.5841V38.4484H75.5669V40.4231H72.1402V52ZM88.1542 52H85.8698L84.6308 48.7476H78.9198L77.6808 52H75.4351L80.8364 38.4484H82.753L88.1542 52ZM83.9145 46.7536L81.785 41.1975L79.6555 46.7536H83.9145ZM99.0443 44.0046V38.4484H101.174V52H99.0443V45.9986H92.5977V52H90.4681V38.4484H92.5977V44.0046H99.0443ZM117.172 55.2911H115.043V52H104.957V38.4484H107.086V50.006H113.242V38.4484H115.372V50.006H117.172V55.2911ZM121.877 48.1862L130.144 38.4484H131.538V52H129.408V42.2816L121.161 52H119.748V38.4484H121.877V48.1862ZM144.045 38.4484V52H141.915V46.6955H140.328L136.592 52H134.017L138.005 46.4439C137.088 46.1599 136.372 45.6759 135.856 44.9919C135.34 44.295 135.082 43.4883 135.082 42.572C135.082 41.7847 135.269 41.0813 135.643 40.4618C136.03 39.8294 136.579 39.339 137.288 38.9905C138.011 38.6291 138.844 38.4484 139.786 38.4484H144.045ZM141.915 44.7015V40.4231H139.786C138.999 40.4231 138.379 40.6231 137.927 41.0232C137.489 41.4233 137.269 41.9396 137.269 42.572C137.269 43.1915 137.489 43.7013 137.927 44.1014C138.379 44.5015 138.999 44.7015 139.786 44.7015H141.915Z" fill="white"/>
</svg>
