<svg width="190" height="67" viewBox="0 0 190 67" fill="none" xmlns="http://www.w3.org/2000/svg">
<rect x="1.25" y="1.25" width="187.5" height="64.5" rx="11.75" fill="black" stroke="black" stroke-width="2.5"/>
<path d="M36.2852 35.2911H34.1557V32H24.0694V18.4484H26.199V30.006H32.3553V18.4484H34.4848V30.006H36.2852V35.2911ZM40.99 25.9986V30.006H46.7204V32H38.8605V18.4484H46.5268V20.4231H40.99V24.0046H46.3332V25.9986H40.99ZM58.4844 24.0046V18.4484H60.6139V32H58.4844V25.9986H52.0377V32H49.9082V18.4484H52.0377V24.0046H58.4844ZM68.6557 32H66.5262V20.4231H63.0996V18.4484H72.0824V20.4231H68.6557V32ZM78.8149 18.4484C79.7699 18.4484 80.6024 18.6291 81.3122 18.9905C82.0221 19.339 82.5706 19.8294 82.9578 20.4618C83.345 21.0813 83.5386 21.7847 83.5386 22.572C83.5386 23.3593 83.345 24.0691 82.9578 24.7015C82.5706 25.321 82.0221 25.8115 81.3122 26.1728C80.6024 26.5213 79.7699 26.6955 78.8149 26.6955H76.6854V32H74.5558V18.4484H78.8149ZM78.7955 24.7015C79.5957 24.7015 80.2217 24.5079 80.6734 24.1207C81.1251 23.7206 81.351 23.2044 81.351 22.572C81.351 21.9396 81.1251 21.4233 80.6734 21.0232C80.2217 20.6231 79.5957 20.4231 78.7955 20.4231H76.6854V24.7015H78.7955ZM95.7301 18.4484C96.6852 18.4484 97.5177 18.6291 98.2275 18.9905C98.9373 19.339 99.4859 19.8294 99.873 20.4618C100.26 21.0813 100.454 21.7847 100.454 22.572C100.454 23.3593 100.26 24.0691 99.873 24.7015C99.4859 25.321 98.9373 25.8115 98.2275 26.1728C97.5177 26.5213 96.6852 26.6955 95.7301 26.6955H93.6006V32H91.4711V18.4484H95.7301ZM95.7108 24.7015C96.511 24.7015 97.1369 24.5079 97.5886 24.1207C98.0404 23.7206 98.2662 23.2044 98.2662 22.572C98.2662 21.9396 98.0404 21.4233 97.5886 21.0232C97.1369 20.6231 96.511 20.4231 95.7108 20.4231H93.6006V24.7015H95.7108ZM113.219 32H110.934L109.695 28.7476H103.984L102.745 32H100.5L105.901 18.4484H107.818L113.219 32ZM108.979 26.7536L106.85 21.1975L104.72 26.7536H108.979ZM119.676 23.6755C120.644 23.6755 121.495 23.8562 122.231 24.2175C122.967 24.5789 123.528 25.0758 123.915 25.7082C124.315 26.3277 124.515 27.0375 124.515 27.8377C124.515 28.6379 124.315 29.3542 123.915 29.9866C123.528 30.6061 122.967 31.0966 122.231 31.4579C121.495 31.8193 120.644 32 119.676 32H115.533V18.4484H123.315V20.4231H117.662V23.6755H119.676ZM119.676 30.006C120.514 30.006 121.166 29.8124 121.631 29.4252C122.095 29.0251 122.328 28.496 122.328 27.8377C122.328 27.1795 122.095 26.6504 121.631 26.2503C121.166 25.8502 120.514 25.6501 119.676 25.6501H117.662V30.006H119.676ZM133.534 32.213C132.244 32.213 131.056 31.9097 129.972 31.3031C128.888 30.6836 128.03 29.8447 127.397 28.7863C126.765 27.7151 126.449 26.5277 126.449 25.2242C126.449 23.9207 126.765 22.7398 127.397 21.6815C128.03 20.6102 128.888 19.7713 129.972 19.1647C131.056 18.5452 132.244 18.2355 133.534 18.2355C134.825 18.2355 136.006 18.5452 137.077 19.1647C138.161 19.7713 139.019 20.6102 139.652 21.6815C140.284 22.7398 140.6 23.9207 140.6 25.2242C140.6 26.5277 140.284 27.7151 139.652 28.7863C139.019 29.8447 138.161 30.6836 137.077 31.3031C136.006 31.9097 134.825 32.213 133.534 32.213ZM133.534 30.2189C134.438 30.2189 135.257 29.9995 135.993 29.5607C136.742 29.1219 137.329 28.5218 137.755 27.7603C138.193 26.9988 138.413 26.1535 138.413 25.2242C138.413 24.295 138.193 23.4496 137.755 22.6881C137.329 21.9138 136.742 21.3072 135.993 20.8684C135.257 20.4295 134.438 20.2101 133.534 20.2101C132.631 20.2101 131.805 20.4295 131.056 20.8684C130.308 21.3072 129.714 21.9138 129.275 22.6881C128.849 23.4496 128.636 24.295 128.636 25.2242C128.636 26.1535 128.849 26.9988 129.275 27.7603C129.714 28.5218 130.308 29.1219 131.056 29.5607C131.805 29.9995 132.631 30.2189 133.534 30.2189ZM147.275 32H145.146V20.4231H141.719V18.4484H150.702V20.4231H147.275V32ZM157.279 23.3851C158.235 23.3851 159.073 23.5658 159.796 23.9271C160.532 24.2756 161.1 24.779 161.5 25.4372C161.913 26.0825 162.119 26.831 162.119 27.6829C162.119 28.5347 161.913 29.2897 161.5 29.9479C161.1 30.5932 160.532 31.0966 159.796 31.4579C159.073 31.8193 158.235 32 157.279 32H153.175V18.4484H155.305V23.3851H157.279ZM163.804 32V18.4484H165.933V32H163.804ZM157.183 30.006C158.047 30.006 158.719 29.7995 159.196 29.3865C159.687 28.9606 159.932 28.3927 159.932 27.6829C159.932 26.973 159.687 26.4116 159.196 25.9986C158.719 25.5727 158.047 25.3597 157.183 25.3597H155.305V30.006H157.183ZM30.3538 51.213C29.089 51.213 27.921 50.9097 26.8498 50.3031C25.7786 49.6836 24.9268 48.8447 24.2943 47.7863C23.6619 46.7151 23.3457 45.5277 23.3457 44.2242C23.3457 42.9207 23.6619 41.7333 24.2943 40.6621C24.9268 39.5909 25.7786 38.752 26.8498 38.1454C27.921 37.5388 29.089 37.2355 30.3538 37.2355C31.8768 37.2355 33.2061 37.6549 34.3419 38.4938C35.4905 39.3327 36.3165 40.4685 36.8199 41.9011H34.5935C34.1934 41.0751 33.6191 40.4233 32.8706 39.9458C32.1349 39.4554 31.296 39.2101 30.3538 39.2101C29.4633 39.2101 28.6502 39.436 27.9146 39.8877C27.1789 40.3265 26.5981 40.9267 26.1722 41.6881C25.7463 42.4496 25.5333 43.295 25.5333 44.2242C25.5333 45.1535 25.7463 45.9988 26.1722 46.7603C26.5981 47.5218 27.1789 48.1219 27.9146 48.5607C28.6502 48.9995 29.4633 49.2189 30.3538 49.2189C31.3218 49.2189 32.1736 48.9802 32.9093 48.5026C33.6578 48.0122 34.2322 47.3604 34.6323 46.5473H36.8586C36.3552 47.9799 35.5292 49.1157 34.3806 49.9546C33.2319 50.7935 31.8897 51.213 30.3538 51.213ZM49.7755 43.9919L55.8737 51H53.1441L47.6266 44.592V51H45.4971V37.4484H47.6266V43.5854L52.873 37.4484H55.4285L49.7755 43.9919ZM59.6848 37.4484H68.2997V51H66.1702V39.4231H61.6788L61.1561 46.3344C61.027 48.0638 60.6334 49.2964 59.9752 50.032C59.3299 50.7548 58.4071 51.1162 57.2068 51.1162H56.5486V49.0447H56.9164C57.6004 49.0447 58.1038 48.8253 58.4264 48.3865C58.7491 47.9348 58.9491 47.1927 59.0266 46.1602L59.6848 37.4484ZM74.2027 47.1862L82.4691 37.4484H83.863V51H81.7335V41.2816L73.4864 51H72.0731V37.4484H74.2027V47.1862ZM89.7688 44.9986V49.006H95.4992V51H87.6393V37.4484H95.3056V39.4231H89.7688V43.0046H95.112V44.9986H89.7688ZM107.263 43.0046V37.4484H109.393V51H107.263V44.9986H100.817V51H98.687V37.4484H100.817V43.0046H107.263ZM117.435 51H115.305V39.4231H111.878V37.4484H120.861V39.4231H117.435V51ZM133.449 51H131.164L129.925 47.7476H124.214L122.975 51H120.729L126.131 37.4484H128.047L133.449 51ZM129.209 45.7536L127.079 40.1975L124.95 45.7536H129.209ZM149.14 37.4484L150.901 51H148.753L147.63 41.9011L143.584 51H142.5L138.415 41.8237L137.292 51H135.182L136.943 37.4484H138.608L143.061 47.4766L147.514 37.4484H149.14ZM156.218 47.1862L164.485 37.4484H165.879V51H163.749V41.2816L155.502 51H154.089V37.4484H156.218V47.1862Z" fill="white"/>
</svg>
