<svg width="1136" height="712" viewBox="0 0 1136 712" fill="none" xmlns="http://www.w3.org/2000/svg">
<g style="mix-blend-mode:multiply">
<path d="M17.4296 84.6894H0.476531V34.1442H17.4296V17.1911H34.0687V0.238074H135.787V17.1911H152.426V34.1442H169.379V68.0503H135.473V51.0973H118.834V34.1442H51.0218V51.0973H34.0687V67.7364H51.0218V84.6894H135.787V101.643H152.426V118.596H169.379V186.094H152.426V203.047H135.787V220H34.0687V203.047H17.4296V186.094H0.476531V152.502H34.0687V169.141H51.0218V186.094H118.834V169.141H135.787V135.549H119.148V118.596H34.0687V101.643H17.4296V84.6894ZM257.22 101.643V135.549H324.719V101.643H307.765V51.0973H274.173V101.643H257.22ZM223.314 186.094V220H189.408V169.141H206.361V135.549H223.314V101.643H240.267V51.0973H257.22V17.1911H274.173V0.238074H308.079V17.1911H324.719V51.0973H341.672V101.643H358.625V135.549H375.578V169.141H392.531V220H358.625V186.094H341.672V169.455H240.267V186.094H223.314ZM412.677 0.238074H564.941V34.1442H446.583V101.643H547.988V135.549H446.583V220H412.677V0.238074ZM585.053 0.238074H737.317V34.1442H618.959V84.6894H720.364V118.596H618.959V186.094H737.317V220H585.053V0.238074ZM17.4296 330.689H0.476531V280.144H17.4296V263.191H34.0687V246.238H135.787V263.191H152.426V280.144H169.379V314.05H135.473V297.097H118.834V280.144H51.0218V297.097H34.0687V313.736H51.0218V330.689H135.787V347.643H152.426V364.596H169.379V432.094H152.426V449.047H135.787V466H34.0687V449.047H17.4296V432.094H0.476531V398.502H34.0687V415.141H51.0218V432.094H118.834V415.141H135.787V381.549H119.148V364.596H34.0687V347.643H17.4296V330.689ZM189.408 246.238H357.997V280.144H290.812V466H256.906V280.144H189.408V246.238ZM400.323 347.643V381.549H467.821V347.643H450.868V297.097H417.276V347.643H400.323ZM366.417 432.094V466H332.511V415.141H349.464V381.549H366.417V347.643H383.37V297.097H400.323V263.191H417.276V246.238H451.182V263.191H467.821V297.097H484.774V347.643H501.727V381.549H518.681V415.141H535.634V466H501.727V432.094H484.774V415.455H383.37V432.094H366.417ZM503.979 246.238H672.568V280.144H605.383V466H571.477V280.144H503.979V246.238ZM692.604 246.238H726.51V466H692.604V246.238ZM805.345 297.097V330.376H788.392V381.863H805.345V415.141H822.298V432.094H872.843V415.141H889.796V381.863H906.749V330.376H889.796V297.097H872.843V280.144H822.298V297.097H805.345ZM771.439 398.502H754.486V313.736H771.439V280.144H788.392V263.191H805.345V246.238H889.796V263.191H906.435V280.144H923.388V313.736H940.341V398.502H923.388V432.094H906.435V449.047H889.796V466H805.345V449.047H788.392V432.094H771.439V398.502ZM966.865 246.238H1000.77V263.191H1017.41V297.097H1034.36V313.736H1051.32V347.643H1068.27V364.596H1085.22V398.502H1102.18V381.549H1101.86V246.238H1135.77V466H1101.86V449.047H1085.22V432.094H1068.27V415.455H1051.32V381.549H1034.36V364.596H1017.41V330.689H1000.77V466H966.865V246.238ZM34.3827 695.047H17.4296V678.408H0.476531V526.144H17.4296V509.191H34.3827V492.238H152.426V509.191H169.065V526.144H186.018V576.689H152.426V543.097H135.787V526.144H51.3357V543.097H34.3827V661.141H51.3357V678.094H101.881V661.141H118.834V644.502H135.473V627.549H101.567V593.643H186.018V712H152.426V678.408H135.787V695.361H118.834V712H34.3827V695.047ZM273.776 593.643V627.549H341.274V593.643H324.321V543.097H290.729V593.643H273.776ZM239.87 678.094V712H205.964V661.141H222.917V627.549H239.87V593.643H256.823V543.097H273.776V509.191H290.729V492.238H324.635V509.191H341.274V543.097H358.227V593.643H375.18V627.549H392.133V661.141H409.087V712H375.18V678.094H358.227V661.455H256.823V678.094H239.87ZM429.233 492.238H463.139V509.191H480.092V543.097H497.045V576.689H513.998V610.596H547.904V576.689H564.858V543.097H581.811V509.191H598.764V492.238H632.67V712H598.764V576.689H581.811V610.596H564.858V644.502H547.904V677.78H513.998V644.502H497.045V610.596H480.092V576.689H463.139V712H429.233V492.238ZM652.809 492.238H805.072V526.144H686.715V576.689H788.119V610.596H686.715V678.094H805.072V712H652.809V492.238Z" fill="#FF4B00"/>
<path d="M17.4296 84.6894H20.4296V81.6894H17.4296V84.6894ZM0.476531 84.6894H-2.52347V87.6894H0.476531V84.6894ZM0.476531 34.1442V31.1442H-2.52347V34.1442H0.476531ZM17.4296 34.1442V37.1442H20.4296V34.1442H17.4296ZM17.4296 17.1911V14.1911H14.4296V17.1911H17.4296ZM34.0687 17.1911V20.1911H37.0687V17.1911H34.0687ZM34.0687 0.238074V-2.76193H31.0687V0.238074H34.0687ZM135.787 0.238074H138.787V-2.76193H135.787V0.238074ZM135.787 17.1911H132.787V20.1911H135.787V17.1911ZM152.426 17.1911H155.426V14.1911H152.426V17.1911ZM152.426 34.1442H149.426V37.1442H152.426V34.1442ZM169.379 34.1442H172.379V31.1442H169.379V34.1442ZM169.379 68.0503V71.0503H172.379V68.0503H169.379ZM135.473 68.0503H132.473V71.0503H135.473V68.0503ZM135.473 51.0973H138.473V48.0973H135.473V51.0973ZM118.834 51.0973H115.834V54.0973H118.834V51.0973ZM118.834 34.1442H121.834V31.1442H118.834V34.1442ZM51.0218 34.1442V31.1442H48.0218V34.1442H51.0218ZM51.0218 51.0973V54.0973H54.0218V51.0973H51.0218ZM34.0687 51.0973V48.0973H31.0687V51.0973H34.0687ZM34.0687 67.7364H31.0687V70.7364H34.0687V67.7364ZM51.0218 67.7364H54.0218V64.7364H51.0218V67.7364ZM51.0218 84.6894H48.0218V87.6894H51.0218V84.6894ZM135.787 84.6894H138.787V81.6894H135.787V84.6894ZM135.787 101.643H132.787V104.643H135.787V101.643ZM152.426 101.643H155.426V98.6425H152.426V101.643ZM152.426 118.596H149.426V121.596H152.426V118.596ZM169.379 118.596H172.379V115.596H169.379V118.596ZM169.379 186.094V189.094H172.379V186.094H169.379ZM152.426 186.094V183.094H149.426V186.094H152.426ZM152.426 203.047V206.047H155.426V203.047H152.426ZM135.787 203.047V200.047H132.787V203.047H135.787ZM135.787 220V223H138.787V220H135.787ZM34.0687 220H31.0687V223H34.0687V220ZM34.0687 203.047H37.0687V200.047H34.0687V203.047ZM17.4296 203.047H14.4296V206.047H17.4296V203.047ZM17.4296 186.094H20.4296V183.094H17.4296V186.094ZM0.476531 186.094H-2.52347V189.094H0.476531V186.094ZM0.476531 152.502V149.502H-2.52347V152.502H0.476531ZM34.0687 152.502H37.0687V149.502H34.0687V152.502ZM34.0687 169.141H31.0687V172.141H34.0687V169.141ZM51.0218 169.141H54.0218V166.141H51.0218V169.141ZM51.0218 186.094H48.0218V189.094H51.0218V186.094ZM118.834 186.094V189.094H121.834V186.094H118.834ZM118.834 169.141V166.141H115.834V169.141H118.834ZM135.787 169.141V172.141H138.787V169.141H135.787ZM135.787 135.549H138.787V132.549H135.787V135.549ZM119.148 135.549H116.148V138.549H119.148V135.549ZM119.148 118.596H122.148V115.596H119.148V118.596ZM34.0687 118.596H31.0687V121.596H34.0687V118.596ZM34.0687 101.643H37.0687V98.6425H34.0687V101.643ZM17.4296 101.643H14.4296V104.643H17.4296V101.643ZM17.4296 81.6894H0.476531V87.6894H17.4296V81.6894ZM3.47653 84.6894V34.1442H-2.52347V84.6894H3.47653ZM0.476531 37.1442H17.4296V31.1442H0.476531V37.1442ZM20.4296 34.1442V17.1911H14.4296V34.1442H20.4296ZM17.4296 20.1911H34.0687V14.1911H17.4296V20.1911ZM37.0687 17.1911V0.238074H31.0687V17.1911H37.0687ZM34.0687 3.23807H135.787V-2.76193H34.0687V3.23807ZM132.787 0.238074V17.1911H138.787V0.238074H132.787ZM135.787 20.1911H152.426V14.1911H135.787V20.1911ZM149.426 17.1911V34.1442H155.426V17.1911H149.426ZM152.426 37.1442H169.379V31.1442H152.426V37.1442ZM166.379 34.1442V68.0503H172.379V34.1442H166.379ZM169.379 65.0503H135.473V71.0503H169.379V65.0503ZM138.473 68.0503V51.0973H132.473V68.0503H138.473ZM135.473 48.0973H118.834V54.0973H135.473V48.0973ZM121.834 51.0973V34.1442H115.834V51.0973H121.834ZM118.834 31.1442H51.0218V37.1442H118.834V31.1442ZM48.0218 34.1442V51.0973H54.0218V34.1442H48.0218ZM51.0218 48.0973H34.0687V54.0973H51.0218V48.0973ZM31.0687 51.0973V67.7364H37.0687V51.0973H31.0687ZM34.0687 70.7364H51.0218V64.7364H34.0687V70.7364ZM48.0218 67.7364V84.6894H54.0218V67.7364H48.0218ZM51.0218 87.6894H135.787V81.6894H51.0218V87.6894ZM132.787 84.6894V101.643H138.787V84.6894H132.787ZM135.787 104.643H152.426V98.6425H135.787V104.643ZM149.426 101.643V118.596H155.426V101.643H149.426ZM152.426 121.596H169.379V115.596H152.426V121.596ZM166.379 118.596V186.094H172.379V118.596H166.379ZM169.379 183.094H152.426V189.094H169.379V183.094ZM149.426 186.094V203.047H155.426V186.094H149.426ZM152.426 200.047H135.787V206.047H152.426V200.047ZM132.787 203.047V220H138.787V203.047H132.787ZM135.787 217H34.0687V223H135.787V217ZM37.0687 220V203.047H31.0687V220H37.0687ZM34.0687 200.047H17.4296V206.047H34.0687V200.047ZM20.4296 203.047V186.094H14.4296V203.047H20.4296ZM17.4296 183.094H0.476531V189.094H17.4296V183.094ZM3.47653 186.094V152.502H-2.52347V186.094H3.47653ZM0.476531 155.502H34.0687V149.502H0.476531V155.502ZM31.0687 152.502V169.141H37.0687V152.502H31.0687ZM34.0687 172.141H51.0218V166.141H34.0687V172.141ZM48.0218 169.141V186.094H54.0218V169.141H48.0218ZM51.0218 189.094H118.834V183.094H51.0218V189.094ZM121.834 186.094V169.141H115.834V186.094H121.834ZM118.834 172.141H135.787V166.141H118.834V172.141ZM138.787 169.141V135.549H132.787V169.141H138.787ZM135.787 132.549H119.148V138.549H135.787V132.549ZM122.148 135.549V118.596H116.148V135.549H122.148ZM119.148 115.596H34.0687V121.596H119.148V115.596ZM37.0687 118.596V101.643H31.0687V118.596H37.0687ZM34.0687 98.6425H17.4296V104.643H34.0687V98.6425ZM20.4296 101.643V84.6894H14.4296V101.643H20.4296ZM257.22 101.643V98.6425H254.22V101.643H257.22ZM257.22 135.549H254.22V138.549H257.22V135.549ZM324.719 135.549V138.549H327.719V135.549H324.719ZM324.719 101.643H327.719V98.6425H324.719V101.643ZM307.765 101.643H304.765V104.643H307.765V101.643ZM307.765 51.0973H310.765V48.0973H307.765V51.0973ZM274.173 51.0973V48.0973H271.173V51.0973H274.173ZM274.173 101.643V104.643H277.173V101.643H274.173ZM223.314 186.094V183.094H220.314V186.094H223.314ZM223.314 220V223H226.314V220H223.314ZM189.408 220H186.408V223H189.408V220ZM189.408 169.141V166.141H186.408V169.141H189.408ZM206.361 169.141V172.141H209.361V169.141H206.361ZM206.361 135.549V132.549H203.361V135.549H206.361ZM223.314 135.549V138.549H226.314V135.549H223.314ZM223.314 101.643V98.6425H220.314V101.643H223.314ZM240.267 101.643V104.643H243.267V101.643H240.267ZM240.267 51.0973V48.0973H237.267V51.0973H240.267ZM257.22 51.0973V54.0973H260.22V51.0973H257.22ZM257.22 17.1911V14.1911H254.22V17.1911H257.22ZM274.173 17.1911V20.1911H277.173V17.1911H274.173ZM274.173 0.238074V-2.76193H271.173V0.238074H274.173ZM308.079 0.238074H311.079V-2.76193H308.079V0.238074ZM308.079 17.1911H305.079V20.1911H308.079V17.1911ZM324.719 17.1911H327.719V14.1911H324.719V17.1911ZM324.719 51.0973H321.719V54.0973H324.719V51.0973ZM341.672 51.0973H344.672V48.0973H341.672V51.0973ZM341.672 101.643H338.672V104.643H341.672V101.643ZM358.625 101.643H361.625V98.6425H358.625V101.643ZM358.625 135.549H355.625V138.549H358.625V135.549ZM375.578 135.549H378.578V132.549H375.578V135.549ZM375.578 169.141H372.578V172.141H375.578V169.141ZM392.531 169.141H395.531V166.141H392.531V169.141ZM392.531 220V223H395.531V220H392.531ZM358.625 220H355.625V223H358.625V220ZM358.625 186.094H361.625V183.094H358.625V186.094ZM341.672 186.094H338.672V189.094H341.672V186.094ZM341.672 169.455H344.672V166.455H341.672V169.455ZM240.267 169.455V166.455H237.267V169.455H240.267ZM240.267 186.094V189.094H243.267V186.094H240.267ZM254.22 101.643V135.549H260.22V101.643H254.22ZM257.22 138.549H324.719V132.549H257.22V138.549ZM327.719 135.549V101.643H321.719V135.549H327.719ZM324.719 98.6425H307.765V104.643H324.719V98.6425ZM310.765 101.643V51.0973H304.765V101.643H310.765ZM307.765 48.0973H274.173V54.0973H307.765V48.0973ZM271.173 51.0973V101.643H277.173V51.0973H271.173ZM274.173 98.6425H257.22V104.643H274.173V98.6425ZM220.314 186.094V220H226.314V186.094H220.314ZM223.314 217H189.408V223H223.314V217ZM192.408 220V169.141H186.408V220H192.408ZM189.408 172.141H206.361V166.141H189.408V172.141ZM209.361 169.141V135.549H203.361V169.141H209.361ZM206.361 138.549H223.314V132.549H206.361V138.549ZM226.314 135.549V101.643H220.314V135.549H226.314ZM223.314 104.643H240.267V98.6425H223.314V104.643ZM243.267 101.643V51.0973H237.267V101.643H243.267ZM240.267 54.0973H257.22V48.0973H240.267V54.0973ZM260.22 51.0973V17.1911H254.22V51.0973H260.22ZM257.22 20.1911H274.173V14.1911H257.22V20.1911ZM277.173 17.1911V0.238074H271.173V17.1911H277.173ZM274.173 3.23807H308.079V-2.76193H274.173V3.23807ZM305.079 0.238074V17.1911H311.079V0.238074H305.079ZM308.079 20.1911H324.719V14.1911H308.079V20.1911ZM321.719 17.1911V51.0973H327.719V17.1911H321.719ZM324.719 54.0973H341.672V48.0973H324.719V54.0973ZM338.672 51.0973V101.643H344.672V51.0973H338.672ZM341.672 104.643H358.625V98.6425H341.672V104.643ZM355.625 101.643V135.549H361.625V101.643H355.625ZM358.625 138.549H375.578V132.549H358.625V138.549ZM372.578 135.549V169.141H378.578V135.549H372.578ZM375.578 172.141H392.531V166.141H375.578V172.141ZM389.531 169.141V220H395.531V169.141H389.531ZM392.531 217H358.625V223H392.531V217ZM361.625 220V186.094H355.625V220H361.625ZM358.625 183.094H341.672V189.094H358.625V183.094ZM344.672 186.094V169.455H338.672V186.094H344.672ZM341.672 166.455H240.267V172.455H341.672V166.455ZM237.267 169.455V186.094H243.267V169.455H237.267ZM240.267 183.094H223.314V189.094H240.267V183.094ZM412.677 0.238074V-2.76193H409.677V0.238074H412.677ZM564.941 0.238074H567.941V-2.76193H564.941V0.238074ZM564.941 34.1442V37.1442H567.941V34.1442H564.941ZM446.583 34.1442V31.1442H443.583V34.1442H446.583ZM446.583 101.643H443.583V104.643H446.583V101.643ZM547.988 101.643H550.988V98.6425H547.988V101.643ZM547.988 135.549V138.549H550.988V135.549H547.988ZM446.583 135.549V132.549H443.583V135.549H446.583ZM446.583 220V223H449.583V220H446.583ZM412.677 220H409.677V223H412.677V220ZM412.677 3.23807H564.941V-2.76193H412.677V3.23807ZM561.941 0.238074V34.1442H567.941V0.238074H561.941ZM564.941 31.1442H446.583V37.1442H564.941V31.1442ZM443.583 34.1442V101.643H449.583V34.1442H443.583ZM446.583 104.643H547.988V98.6425H446.583V104.643ZM544.988 101.643V135.549H550.988V101.643H544.988ZM547.988 132.549H446.583V138.549H547.988V132.549ZM443.583 135.549V220H449.583V135.549H443.583ZM446.583 217H412.677V223H446.583V217ZM415.677 220V0.238074H409.677V220H415.677ZM585.053 0.238074V-2.76193H582.053V0.238074H585.053ZM737.317 0.238074H740.317V-2.76193H737.317V0.238074ZM737.317 34.1442V37.1442H740.317V34.1442H737.317ZM618.959 34.1442V31.1442H615.959V34.1442H618.959ZM618.959 84.6894H615.959V87.6894H618.959V84.6894ZM720.364 84.6894H723.364V81.6894H720.364V84.6894ZM720.364 118.596V121.596H723.364V118.596H720.364ZM618.959 118.596V115.596H615.959V118.596H618.959ZM618.959 186.094H615.959V189.094H618.959V186.094ZM737.317 186.094H740.317V183.094H737.317V186.094ZM737.317 220V223H740.317V220H737.317ZM585.053 220H582.053V223H585.053V220ZM585.053 3.23807H737.317V-2.76193H585.053V3.23807ZM734.317 0.238074V34.1442H740.317V0.238074H734.317ZM737.317 31.1442H618.959V37.1442H737.317V31.1442ZM615.959 34.1442V84.6894H621.959V34.1442H615.959ZM618.959 87.6894H720.364V81.6894H618.959V87.6894ZM717.364 84.6894V118.596H723.364V84.6894H717.364ZM720.364 115.596H618.959V121.596H720.364V115.596ZM615.959 118.596V186.094H621.959V118.596H615.959ZM618.959 189.094H737.317V183.094H618.959V189.094ZM734.317 186.094V220H740.317V186.094H734.317ZM737.317 217H585.053V223H737.317V217ZM588.053 220V0.238074H582.053V220H588.053ZM17.4296 330.689H20.4296V327.689H17.4296V330.689ZM0.476531 330.689H-2.52347V333.689H0.476531V330.689ZM0.476531 280.144V277.144H-2.52347V280.144H0.476531ZM17.4296 280.144V283.144H20.4296V280.144H17.4296ZM17.4296 263.191V260.191H14.4296V263.191H17.4296ZM34.0687 263.191V266.191H37.0687V263.191H34.0687ZM34.0687 246.238V243.238H31.0687V246.238H34.0687ZM135.787 246.238H138.787V243.238H135.787V246.238ZM135.787 263.191H132.787V266.191H135.787V263.191ZM152.426 263.191H155.426V260.191H152.426V263.191ZM152.426 280.144H149.426V283.144H152.426V280.144ZM169.379 280.144H172.379V277.144H169.379V280.144ZM169.379 314.05V317.05H172.379V314.05H169.379ZM135.473 314.05H132.473V317.05H135.473V314.05ZM135.473 297.097H138.473V294.097H135.473V297.097ZM118.834 297.097H115.834V300.097H118.834V297.097ZM118.834 280.144H121.834V277.144H118.834V280.144ZM51.0218 280.144V277.144H48.0218V280.144H51.0218ZM51.0218 297.097V300.097H54.0218V297.097H51.0218ZM34.0687 297.097V294.097H31.0687V297.097H34.0687ZM34.0687 313.736H31.0687V316.736H34.0687V313.736ZM51.0218 313.736H54.0218V310.736H51.0218V313.736ZM51.0218 330.689H48.0218V333.689H51.0218V330.689ZM135.787 330.689H138.787V327.689H135.787V330.689ZM135.787 347.643H132.787V350.643H135.787V347.643ZM152.426 347.643H155.426V344.643H152.426V347.643ZM152.426 364.596H149.426V367.596H152.426V364.596ZM169.379 364.596H172.379V361.596H169.379V364.596ZM169.379 432.094V435.094H172.379V432.094H169.379ZM152.426 432.094V429.094H149.426V432.094H152.426ZM152.426 449.047V452.047H155.426V449.047H152.426ZM135.787 449.047V446.047H132.787V449.047H135.787ZM135.787 466V469H138.787V466H135.787ZM34.0687 466H31.0687V469H34.0687V466ZM34.0687 449.047H37.0687V446.047H34.0687V449.047ZM17.4296 449.047H14.4296V452.047H17.4296V449.047ZM17.4296 432.094H20.4296V429.094H17.4296V432.094ZM0.476531 432.094H-2.52347V435.094H0.476531V432.094ZM0.476531 398.502V395.502H-2.52347V398.502H0.476531ZM34.0687 398.502H37.0687V395.502H34.0687V398.502ZM34.0687 415.141H31.0687V418.141H34.0687V415.141ZM51.0218 415.141H54.0218V412.141H51.0218V415.141ZM51.0218 432.094H48.0218V435.094H51.0218V432.094ZM118.834 432.094V435.094H121.834V432.094H118.834ZM118.834 415.141V412.141H115.834V415.141H118.834ZM135.787 415.141V418.141H138.787V415.141H135.787ZM135.787 381.549H138.787V378.549H135.787V381.549ZM119.148 381.549H116.148V384.549H119.148V381.549ZM119.148 364.596H122.148V361.596H119.148V364.596ZM34.0687 364.596H31.0687V367.596H34.0687V364.596ZM34.0687 347.643H37.0687V344.643H34.0687V347.643ZM17.4296 347.643H14.4296V350.643H17.4296V347.643ZM17.4296 327.689H0.476531V333.689H17.4296V327.689ZM3.47653 330.689V280.144H-2.52347V330.689H3.47653ZM0.476531 283.144H17.4296V277.144H0.476531V283.144ZM20.4296 280.144V263.191H14.4296V280.144H20.4296ZM17.4296 266.191H34.0687V260.191H17.4296V266.191ZM37.0687 263.191V246.238H31.0687V263.191H37.0687ZM34.0687 249.238H135.787V243.238H34.0687V249.238ZM132.787 246.238V263.191H138.787V246.238H132.787ZM135.787 266.191H152.426V260.191H135.787V266.191ZM149.426 263.191V280.144H155.426V263.191H149.426ZM152.426 283.144H169.379V277.144H152.426V283.144ZM166.379 280.144V314.05H172.379V280.144H166.379ZM169.379 311.05H135.473V317.05H169.379V311.05ZM138.473 314.05V297.097H132.473V314.05H138.473ZM135.473 294.097H118.834V300.097H135.473V294.097ZM121.834 297.097V280.144H115.834V297.097H121.834ZM118.834 277.144H51.0218V283.144H118.834V277.144ZM48.0218 280.144V297.097H54.0218V280.144H48.0218ZM51.0218 294.097H34.0687V300.097H51.0218V294.097ZM31.0687 297.097V313.736H37.0687V297.097H31.0687ZM34.0687 316.736H51.0218V310.736H34.0687V316.736ZM48.0218 313.736V330.689H54.0218V313.736H48.0218ZM51.0218 333.689H135.787V327.689H51.0218V333.689ZM132.787 330.689V347.643H138.787V330.689H132.787ZM135.787 350.643H152.426V344.643H135.787V350.643ZM149.426 347.643V364.596H155.426V347.643H149.426ZM152.426 367.596H169.379V361.596H152.426V367.596ZM166.379 364.596V432.094H172.379V364.596H166.379ZM169.379 429.094H152.426V435.094H169.379V429.094ZM149.426 432.094V449.047H155.426V432.094H149.426ZM152.426 446.047H135.787V452.047H152.426V446.047ZM132.787 449.047V466H138.787V449.047H132.787ZM135.787 463H34.0687V469H135.787V463ZM37.0687 466V449.047H31.0687V466H37.0687ZM34.0687 446.047H17.4296V452.047H34.0687V446.047ZM20.4296 449.047V432.094H14.4296V449.047H20.4296ZM17.4296 429.094H0.476531V435.094H17.4296V429.094ZM3.47653 432.094V398.502H-2.52347V432.094H3.47653ZM0.476531 401.502H34.0687V395.502H0.476531V401.502ZM31.0687 398.502V415.141H37.0687V398.502H31.0687ZM34.0687 418.141H51.0218V412.141H34.0687V418.141ZM48.0218 415.141V432.094H54.0218V415.141H48.0218ZM51.0218 435.094H118.834V429.094H51.0218V435.094ZM121.834 432.094V415.141H115.834V432.094H121.834ZM118.834 418.141H135.787V412.141H118.834V418.141ZM138.787 415.141V381.549H132.787V415.141H138.787ZM135.787 378.549H119.148V384.549H135.787V378.549ZM122.148 381.549V364.596H116.148V381.549H122.148ZM119.148 361.596H34.0687V367.596H119.148V361.596ZM37.0687 364.596V347.643H31.0687V364.596H37.0687ZM34.0687 344.643H17.4296V350.643H34.0687V344.643ZM20.4296 347.643V330.689H14.4296V347.643H20.4296ZM189.408 246.238V243.238H186.408V246.238H189.408ZM357.997 246.238H360.997V243.238H357.997V246.238ZM357.997 280.144V283.144H360.997V280.144H357.997ZM290.812 280.144V277.144H287.812V280.144H290.812ZM290.812 466V469H293.812V466H290.812ZM256.906 466H253.906V469H256.906V466ZM256.906 280.144H259.906V277.144H256.906V280.144ZM189.408 280.144H186.408V283.144H189.408V280.144ZM189.408 249.238H357.997V243.238H189.408V249.238ZM354.997 246.238V280.144H360.997V246.238H354.997ZM357.997 277.144H290.812V283.144H357.997V277.144ZM287.812 280.144V466H293.812V280.144H287.812ZM290.812 463H256.906V469H290.812V463ZM259.906 466V280.144H253.906V466H259.906ZM256.906 277.144H189.408V283.144H256.906V277.144ZM192.408 280.144V246.238H186.408V280.144H192.408ZM400.323 347.643V344.643H397.323V347.643H400.323ZM400.323 381.549H397.323V384.549H400.323V381.549ZM467.821 381.549V384.549H470.821V381.549H467.821ZM467.821 347.643H470.821V344.643H467.821V347.643ZM450.868 347.643H447.868V350.643H450.868V347.643ZM450.868 297.097H453.868V294.097H450.868V297.097ZM417.276 297.097V294.097H414.276V297.097H417.276ZM417.276 347.643V350.643H420.276V347.643H417.276ZM366.417 432.094V429.094H363.417V432.094H366.417ZM366.417 466V469H369.417V466H366.417ZM332.511 466H329.511V469H332.511V466ZM332.511 415.141V412.141H329.511V415.141H332.511ZM349.464 415.141V418.141H352.464V415.141H349.464ZM349.464 381.549V378.549H346.464V381.549H349.464ZM366.417 381.549V384.549H369.417V381.549H366.417ZM366.417 347.643V344.643H363.417V347.643H366.417ZM383.37 347.643V350.643H386.37V347.643H383.37ZM383.37 297.097V294.097H380.37V297.097H383.37ZM400.323 297.097V300.097H403.323V297.097H400.323ZM400.323 263.191V260.191H397.323V263.191H400.323ZM417.276 263.191V266.191H420.276V263.191H417.276ZM417.276 246.238V243.238H414.276V246.238H417.276ZM451.182 246.238H454.182V243.238H451.182V246.238ZM451.182 263.191H448.182V266.191H451.182V263.191ZM467.821 263.191H470.821V260.191H467.821V263.191ZM467.821 297.097H464.821V300.097H467.821V297.097ZM484.774 297.097H487.774V294.097H484.774V297.097ZM484.774 347.643H481.774V350.643H484.774V347.643ZM501.727 347.643H504.727V344.643H501.727V347.643ZM501.727 381.549H498.727V384.549H501.727V381.549ZM518.681 381.549H521.681V378.549H518.681V381.549ZM518.681 415.141H515.681V418.141H518.681V415.141ZM535.634 415.141H538.634V412.141H535.634V415.141ZM535.634 466V469H538.634V466H535.634ZM501.727 466H498.727V469H501.727V466ZM501.727 432.094H504.727V429.094H501.727V432.094ZM484.774 432.094H481.774V435.094H484.774V432.094ZM484.774 415.455H487.774V412.455H484.774V415.455ZM383.37 415.455V412.455H380.37V415.455H383.37ZM383.37 432.094V435.094H386.37V432.094H383.37ZM397.323 347.643V381.549H403.323V347.643H397.323ZM400.323 384.549H467.821V378.549H400.323V384.549ZM470.821 381.549V347.643H464.821V381.549H470.821ZM467.821 344.643H450.868V350.643H467.821V344.643ZM453.868 347.643V297.097H447.868V347.643H453.868ZM450.868 294.097H417.276V300.097H450.868V294.097ZM414.276 297.097V347.643H420.276V297.097H414.276ZM417.276 344.643H400.323V350.643H417.276V344.643ZM363.417 432.094V466H369.417V432.094H363.417ZM366.417 463H332.511V469H366.417V463ZM335.511 466V415.141H329.511V466H335.511ZM332.511 418.141H349.464V412.141H332.511V418.141ZM352.464 415.141V381.549H346.464V415.141H352.464ZM349.464 384.549H366.417V378.549H349.464V384.549ZM369.417 381.549V347.643H363.417V381.549H369.417ZM366.417 350.643H383.37V344.643H366.417V350.643ZM386.37 347.643V297.097H380.37V347.643H386.37ZM383.37 300.097H400.323V294.097H383.37V300.097ZM403.323 297.097V263.191H397.323V297.097H403.323ZM400.323 266.191H417.276V260.191H400.323V266.191ZM420.276 263.191V246.238H414.276V263.191H420.276ZM417.276 249.238H451.182V243.238H417.276V249.238ZM448.182 246.238V263.191H454.182V246.238H448.182ZM451.182 266.191H467.821V260.191H451.182V266.191ZM464.821 263.191V297.097H470.821V263.191H464.821ZM467.821 300.097H484.774V294.097H467.821V300.097ZM481.774 297.097V347.643H487.774V297.097H481.774ZM484.774 350.643H501.727V344.643H484.774V350.643ZM498.727 347.643V381.549H504.727V347.643H498.727ZM501.727 384.549H518.681V378.549H501.727V384.549ZM515.681 381.549V415.141H521.681V381.549H515.681ZM518.681 418.141H535.634V412.141H518.681V418.141ZM532.634 415.141V466H538.634V415.141H532.634ZM535.634 463H501.727V469H535.634V463ZM504.727 466V432.094H498.727V466H504.727ZM501.727 429.094H484.774V435.094H501.727V429.094ZM487.774 432.094V415.455H481.774V432.094H487.774ZM484.774 412.455H383.37V418.455H484.774V412.455ZM380.37 415.455V432.094H386.37V415.455H380.37ZM383.37 429.094H366.417V435.094H383.37V429.094ZM503.979 246.238V243.238H500.979V246.238H503.979ZM672.568 246.238H675.568V243.238H672.568V246.238ZM672.568 280.144V283.144H675.568V280.144H672.568ZM605.383 280.144V277.144H602.383V280.144H605.383ZM605.383 466V469H608.383V466H605.383ZM571.477 466H568.477V469H571.477V466ZM571.477 280.144H574.477V277.144H571.477V280.144ZM503.979 280.144H500.979V283.144H503.979V280.144ZM503.979 249.238H672.568V243.238H503.979V249.238ZM669.568 246.238V280.144H675.568V246.238H669.568ZM672.568 277.144H605.383V283.144H672.568V277.144ZM602.383 280.144V466H608.383V280.144H602.383ZM605.383 463H571.477V469H605.383V463ZM574.477 466V280.144H568.477V466H574.477ZM571.477 277.144H503.979V283.144H571.477V277.144ZM506.979 280.144V246.238H500.979V280.144H506.979ZM692.604 246.238V243.238H689.604V246.238H692.604ZM726.51 246.238H729.51V243.238H726.51V246.238ZM726.51 466V469H729.51V466H726.51ZM692.604 466H689.604V469H692.604V466ZM692.604 249.238H726.51V243.238H692.604V249.238ZM723.51 246.238V466H729.51V246.238H723.51ZM726.51 463H692.604V469H726.51V463ZM695.604 466V246.238H689.604V466H695.604ZM805.345 297.097V294.097H802.345V297.097H805.345ZM805.345 330.376V333.376H808.345V330.376H805.345ZM788.392 330.376V327.376H785.392V330.376H788.392ZM788.392 381.863H785.392V384.863H788.392V381.863ZM805.345 381.863H808.345V378.863H805.345V381.863ZM805.345 415.141H802.345V418.141H805.345V415.141ZM822.298 415.141H825.298V412.141H822.298V415.141ZM822.298 432.094H819.298V435.094H822.298V432.094ZM872.843 432.094V435.094H875.843V432.094H872.843ZM872.843 415.141V412.141H869.843V415.141H872.843ZM889.796 415.141V418.141H892.796V415.141H889.796ZM889.796 381.863V378.863H886.796V381.863H889.796ZM906.749 381.863V384.863H909.749V381.863H906.749ZM906.749 330.376H909.749V327.376H906.749V330.376ZM889.796 330.376H886.796V333.376H889.796V330.376ZM889.796 297.097H892.796V294.097H889.796V297.097ZM872.843 297.097H869.843V300.097H872.843V297.097ZM872.843 280.144H875.843V277.144H872.843V280.144ZM822.298 280.144V277.144H819.298V280.144H822.298ZM822.298 297.097V300.097H825.298V297.097H822.298ZM771.439 398.502H774.439V395.502H771.439V398.502ZM754.486 398.502H751.486V401.502H754.486V398.502ZM754.486 313.736V310.736H751.486V313.736H754.486ZM771.439 313.736V316.736H774.439V313.736H771.439ZM771.439 280.144V277.144H768.439V280.144H771.439ZM788.392 280.144V283.144H791.392V280.144H788.392ZM788.392 263.191V260.191H785.392V263.191H788.392ZM805.345 263.191V266.191H808.345V263.191H805.345ZM805.345 246.238V243.238H802.345V246.238H805.345ZM889.796 246.238H892.796V243.238H889.796V246.238ZM889.796 263.191H886.796V266.191H889.796V263.191ZM906.435 263.191H909.435V260.191H906.435V263.191ZM906.435 280.144H903.435V283.144H906.435V280.144ZM923.388 280.144H926.388V277.144H923.388V280.144ZM923.388 313.736H920.388V316.736H923.388V313.736ZM940.341 313.736H943.341V310.736H940.341V313.736ZM940.341 398.502V401.502H943.341V398.502H940.341ZM923.388 398.502V395.502H920.388V398.502H923.388ZM923.388 432.094V435.094H926.388V432.094H923.388ZM906.435 432.094V429.094H903.435V432.094H906.435ZM906.435 449.047V452.047H909.435V449.047H906.435ZM889.796 449.047V446.047H886.796V449.047H889.796ZM889.796 466V469H892.796V466H889.796ZM805.345 466H802.345V469H805.345V466ZM805.345 449.047H808.345V446.047H805.345V449.047ZM788.392 449.047H785.392V452.047H788.392V449.047ZM788.392 432.094H791.392V429.094H788.392V432.094ZM771.439 432.094H768.439V435.094H771.439V432.094ZM802.345 297.097V330.376H808.345V297.097H802.345ZM805.345 327.376H788.392V333.376H805.345V327.376ZM785.392 330.376V381.863H791.392V330.376H785.392ZM788.392 384.863H805.345V378.863H788.392V384.863ZM802.345 381.863V415.141H808.345V381.863H802.345ZM805.345 418.141H822.298V412.141H805.345V418.141ZM819.298 415.141V432.094H825.298V415.141H819.298ZM822.298 435.094H872.843V429.094H822.298V435.094ZM875.843 432.094V415.141H869.843V432.094H875.843ZM872.843 418.141H889.796V412.141H872.843V418.141ZM892.796 415.141V381.863H886.796V415.141H892.796ZM889.796 384.863H906.749V378.863H889.796V384.863ZM909.749 381.863V330.376H903.749V381.863H909.749ZM906.749 327.376H889.796V333.376H906.749V327.376ZM892.796 330.376V297.097H886.796V330.376H892.796ZM889.796 294.097H872.843V300.097H889.796V294.097ZM875.843 297.097V280.144H869.843V297.097H875.843ZM872.843 277.144H822.298V283.144H872.843V277.144ZM819.298 280.144V297.097H825.298V280.144H819.298ZM822.298 294.097H805.345V300.097H822.298V294.097ZM771.439 395.502H754.486V401.502H771.439V395.502ZM757.486 398.502V313.736H751.486V398.502H757.486ZM754.486 316.736H771.439V310.736H754.486V316.736ZM774.439 313.736V280.144H768.439V313.736H774.439ZM771.439 283.144H788.392V277.144H771.439V283.144ZM791.392 280.144V263.191H785.392V280.144H791.392ZM788.392 266.191H805.345V260.191H788.392V266.191ZM808.345 263.191V246.238H802.345V263.191H808.345ZM805.345 249.238H889.796V243.238H805.345V249.238ZM886.796 246.238V263.191H892.796V246.238H886.796ZM889.796 266.191H906.435V260.191H889.796V266.191ZM903.435 263.191V280.144H909.435V263.191H903.435ZM906.435 283.144H923.388V277.144H906.435V283.144ZM920.388 280.144V313.736H926.388V280.144H920.388ZM923.388 316.736H940.341V310.736H923.388V316.736ZM937.341 313.736V398.502H943.341V313.736H937.341ZM940.341 395.502H923.388V401.502H940.341V395.502ZM920.388 398.502V432.094H926.388V398.502H920.388ZM923.388 429.094H906.435V435.094H923.388V429.094ZM903.435 432.094V449.047H909.435V432.094H903.435ZM906.435 446.047H889.796V452.047H906.435V446.047ZM886.796 449.047V466H892.796V449.047H886.796ZM889.796 463H805.345V469H889.796V463ZM808.345 466V449.047H802.345V466H808.345ZM805.345 446.047H788.392V452.047H805.345V446.047ZM791.392 449.047V432.094H785.392V449.047H791.392ZM788.392 429.094H771.439V435.094H788.392V429.094ZM774.439 432.094V398.502H768.439V432.094H774.439ZM966.865 246.238V243.238H963.865V246.238H966.865ZM1000.77 246.238H1003.77V243.238H1000.77V246.238ZM1000.77 263.191H997.771V266.191H1000.77V263.191ZM1017.41 263.191H1020.41V260.191H1017.41V263.191ZM1017.41 297.097H1014.41V300.097H1017.41V297.097ZM1034.36 297.097H1037.36V294.097H1034.36V297.097ZM1034.36 313.736H1031.36V316.736H1034.36V313.736ZM1051.32 313.736H1054.32V310.736H1051.32V313.736ZM1051.32 347.643H1048.32V350.643H1051.32V347.643ZM1068.27 347.643H1071.27V344.643H1068.27V347.643ZM1068.27 364.596H1065.27V367.596H1068.27V364.596ZM1085.22 364.596H1088.22V361.596H1085.22V364.596ZM1085.22 398.502H1082.22V401.502H1085.22V398.502ZM1102.18 398.502V401.502H1105.18V398.502H1102.18ZM1102.18 381.549H1105.18V378.549H1102.18V381.549ZM1101.86 381.549H1098.86V384.549H1101.86V381.549ZM1101.86 246.238V243.238H1098.86V246.238H1101.86ZM1135.77 246.238H1138.77V243.238H1135.77V246.238ZM1135.77 466V469H1138.77V466H1135.77ZM1101.86 466H1098.86V469H1101.86V466ZM1101.86 449.047H1104.86V446.047H1101.86V449.047ZM1085.22 449.047H1082.22V452.047H1085.22V449.047ZM1085.22 432.094H1088.22V429.094H1085.22V432.094ZM1068.27 432.094H1065.27V435.094H1068.27V432.094ZM1068.27 415.455H1071.27V412.455H1068.27V415.455ZM1051.32 415.455H1048.32V418.455H1051.32V415.455ZM1051.32 381.549H1054.32V378.549H1051.32V381.549ZM1034.36 381.549H1031.36V384.549H1034.36V381.549ZM1034.36 364.596H1037.36V361.596H1034.36V364.596ZM1017.41 364.596H1014.41V367.596H1017.41V364.596ZM1017.41 330.689H1020.41V327.689H1017.41V330.689ZM1000.77 330.689V327.689H997.771V330.689H1000.77ZM1000.77 466V469H1003.77V466H1000.77ZM966.865 466H963.865V469H966.865V466ZM966.865 249.238H1000.77V243.238H966.865V249.238ZM997.771 246.238V263.191H1003.77V246.238H997.771ZM1000.77 266.191H1017.41V260.191H1000.77V266.191ZM1014.41 263.191V297.097H1020.41V263.191H1014.41ZM1017.41 300.097H1034.36V294.097H1017.41V300.097ZM1031.36 297.097V313.736H1037.36V297.097H1031.36ZM1034.36 316.736H1051.32V310.736H1034.36V316.736ZM1048.32 313.736V347.643H1054.32V313.736H1048.32ZM1051.32 350.643H1068.27V344.643H1051.32V350.643ZM1065.27 347.643V364.596H1071.27V347.643H1065.27ZM1068.27 367.596H1085.22V361.596H1068.27V367.596ZM1082.22 364.596V398.502H1088.22V364.596H1082.22ZM1085.22 401.502H1102.18V395.502H1085.22V401.502ZM1105.18 398.502V381.549H1099.18V398.502H1105.18ZM1102.18 378.549H1101.86V384.549H1102.18V378.549ZM1104.86 381.549V246.238H1098.86V381.549H1104.86ZM1101.86 249.238H1135.77V243.238H1101.86V249.238ZM1132.77 246.238V466H1138.77V246.238H1132.77ZM1135.77 463H1101.86V469H1135.77V463ZM1104.86 466V449.047H1098.86V466H1104.86ZM1101.86 446.047H1085.22V452.047H1101.86V446.047ZM1088.22 449.047V432.094H1082.22V449.047H1088.22ZM1085.22 429.094H1068.27V435.094H1085.22V429.094ZM1071.27 432.094V415.455H1065.27V432.094H1071.27ZM1068.27 412.455H1051.32V418.455H1068.27V412.455ZM1054.32 415.455V381.549H1048.32V415.455H1054.32ZM1051.32 378.549H1034.36V384.549H1051.32V378.549ZM1037.36 381.549V364.596H1031.36V381.549H1037.36ZM1034.36 361.596H1017.41V367.596H1034.36V361.596ZM1020.41 364.596V330.689H1014.41V364.596H1020.41ZM1017.41 327.689H1000.77V333.689H1017.41V327.689ZM997.771 330.689V466H1003.77V330.689H997.771ZM1000.77 463H966.865V469H1000.77V463ZM969.865 466V246.238H963.865V466H969.865ZM34.3827 695.047H37.3827V692.047H34.3827V695.047ZM17.4296 695.047H14.4296V698.047H17.4296V695.047ZM17.4296 678.408H20.4296V675.408H17.4296V678.408ZM0.476531 678.408H-2.52347V681.408H0.476531V678.408ZM0.476531 526.144V523.144H-2.52347V526.144H0.476531ZM17.4296 526.144V529.144H20.4296V526.144H17.4296ZM17.4296 509.191V506.191H14.4296V509.191H17.4296ZM34.3827 509.191V512.191H37.3827V509.191H34.3827ZM34.3827 492.238V489.238H31.3827V492.238H34.3827ZM152.426 492.238H155.426V489.238H152.426V492.238ZM152.426 509.191H149.426V512.191H152.426V509.191ZM169.065 509.191H172.065V506.191H169.065V509.191ZM169.065 526.144H166.065V529.144H169.065V526.144ZM186.018 526.144H189.018V523.144H186.018V526.144ZM186.018 576.689V579.689H189.018V576.689H186.018ZM152.426 576.689H149.426V579.689H152.426V576.689ZM152.426 543.097H155.426V540.097H152.426V543.097ZM135.787 543.097H132.787V546.097H135.787V543.097ZM135.787 526.144H138.787V523.144H135.787V526.144ZM51.3357 526.144V523.144H48.3357V526.144H51.3357ZM51.3357 543.097V546.097H54.3357V543.097H51.3357ZM34.3827 543.097V540.097H31.3827V543.097H34.3827ZM34.3827 661.141H31.3827V664.141H34.3827V661.141ZM51.3357 661.141H54.3357V658.141H51.3357V661.141ZM51.3357 678.094H48.3357V681.094H51.3357V678.094ZM101.881 678.094V681.094H104.881V678.094H101.881ZM101.881 661.141V658.141H98.881V661.141H101.881ZM118.834 661.141V664.141H121.834V661.141H118.834ZM118.834 644.502V641.502H115.834V644.502H118.834ZM135.473 644.502V647.502H138.473V644.502H135.473ZM135.473 627.549H138.473V624.549H135.473V627.549ZM101.567 627.549H98.567V630.549H101.567V627.549ZM101.567 593.643V590.643H98.567V593.643H101.567ZM186.018 593.643H189.018V590.643H186.018V593.643ZM186.018 712V715H189.018V712H186.018ZM152.426 712H149.426V715H152.426V712ZM152.426 678.408H155.426V675.408H152.426V678.408ZM135.787 678.408V675.408H132.787V678.408H135.787ZM135.787 695.361V698.361H138.787V695.361H135.787ZM118.834 695.361V692.361H115.834V695.361H118.834ZM118.834 712V715H121.834V712H118.834ZM34.3827 712H31.3827V715H34.3827V712ZM34.3827 692.047H17.4296V698.047H34.3827V692.047ZM20.4296 695.047V678.408H14.4296V695.047H20.4296ZM17.4296 675.408H0.476531V681.408H17.4296V675.408ZM3.47653 678.408V526.144H-2.52347V678.408H3.47653ZM0.476531 529.144H17.4296V523.144H0.476531V529.144ZM20.4296 526.144V509.191H14.4296V526.144H20.4296ZM17.4296 512.191H34.3827V506.191H17.4296V512.191ZM37.3827 509.191V492.238H31.3827V509.191H37.3827ZM34.3827 495.238H152.426V489.238H34.3827V495.238ZM149.426 492.238V509.191H155.426V492.238H149.426ZM152.426 512.191H169.065V506.191H152.426V512.191ZM166.065 509.191V526.144H172.065V509.191H166.065ZM169.065 529.144H186.018V523.144H169.065V529.144ZM183.018 526.144V576.689H189.018V526.144H183.018ZM186.018 573.689H152.426V579.689H186.018V573.689ZM155.426 576.689V543.097H149.426V576.689H155.426ZM152.426 540.097H135.787V546.097H152.426V540.097ZM138.787 543.097V526.144H132.787V543.097H138.787ZM135.787 523.144H51.3357V529.144H135.787V523.144ZM48.3357 526.144V543.097H54.3357V526.144H48.3357ZM51.3357 540.097H34.3827V546.097H51.3357V540.097ZM31.3827 543.097V661.141H37.3827V543.097H31.3827ZM34.3827 664.141H51.3357V658.141H34.3827V664.141ZM48.3357 661.141V678.094H54.3357V661.141H48.3357ZM51.3357 681.094H101.881V675.094H51.3357V681.094ZM104.881 678.094V661.141H98.881V678.094H104.881ZM101.881 664.141H118.834V658.141H101.881V664.141ZM121.834 661.141V644.502H115.834V661.141H121.834ZM118.834 647.502H135.473V641.502H118.834V647.502ZM138.473 644.502V627.549H132.473V644.502H138.473ZM135.473 624.549H101.567V630.549H135.473V624.549ZM104.567 627.549V593.643H98.567V627.549H104.567ZM101.567 596.643H186.018V590.643H101.567V596.643ZM183.018 593.643V712H189.018V593.643H183.018ZM186.018 709H152.426V715H186.018V709ZM155.426 712V678.408H149.426V712H155.426ZM152.426 675.408H135.787V681.408H152.426V675.408ZM132.787 678.408V695.361H138.787V678.408H132.787ZM135.787 692.361H118.834V698.361H135.787V692.361ZM115.834 695.361V712H121.834V695.361H115.834ZM118.834 709H34.3827V715H118.834V709ZM37.3827 712V695.047H31.3827V712H37.3827ZM273.776 593.643V590.643H270.776V593.643H273.776ZM273.776 627.549H270.776V630.549H273.776V627.549ZM341.274 627.549V630.549H344.274V627.549H341.274ZM341.274 593.643H344.274V590.643H341.274V593.643ZM324.321 593.643H321.321V596.643H324.321V593.643ZM324.321 543.097H327.321V540.097H324.321V543.097ZM290.729 543.097V540.097H287.729V543.097H290.729ZM290.729 593.643V596.643H293.729V593.643H290.729ZM239.87 678.094V675.094H236.87V678.094H239.87ZM239.87 712V715H242.87V712H239.87ZM205.964 712H202.964V715H205.964V712ZM205.964 661.141V658.141H202.964V661.141H205.964ZM222.917 661.141V664.141H225.917V661.141H222.917ZM222.917 627.549V624.549H219.917V627.549H222.917ZM239.87 627.549V630.549H242.87V627.549H239.87ZM239.87 593.643V590.643H236.87V593.643H239.87ZM256.823 593.643V596.643H259.823V593.643H256.823ZM256.823 543.097V540.097H253.823V543.097H256.823ZM273.776 543.097V546.097H276.776V543.097H273.776ZM273.776 509.191V506.191H270.776V509.191H273.776ZM290.729 509.191V512.191H293.729V509.191H290.729ZM290.729 492.238V489.238H287.729V492.238H290.729ZM324.635 492.238H327.635V489.238H324.635V492.238ZM324.635 509.191H321.635V512.191H324.635V509.191ZM341.274 509.191H344.274V506.191H341.274V509.191ZM341.274 543.097H338.274V546.097H341.274V543.097ZM358.227 543.097H361.227V540.097H358.227V543.097ZM358.227 593.643H355.227V596.643H358.227V593.643ZM375.18 593.643H378.18V590.643H375.18V593.643ZM375.18 627.549H372.18V630.549H375.18V627.549ZM392.133 627.549H395.133V624.549H392.133V627.549ZM392.133 661.141H389.133V664.141H392.133V661.141ZM409.087 661.141H412.087V658.141H409.087V661.141ZM409.087 712V715H412.087V712H409.087ZM375.18 712H372.18V715H375.18V712ZM375.18 678.094H378.18V675.094H375.18V678.094ZM358.227 678.094H355.227V681.094H358.227V678.094ZM358.227 661.455H361.227V658.455H358.227V661.455ZM256.823 661.455V658.455H253.823V661.455H256.823ZM256.823 678.094V681.094H259.823V678.094H256.823ZM270.776 593.643V627.549H276.776V593.643H270.776ZM273.776 630.549H341.274V624.549H273.776V630.549ZM344.274 627.549V593.643H338.274V627.549H344.274ZM341.274 590.643H324.321V596.643H341.274V590.643ZM327.321 593.643V543.097H321.321V593.643H327.321ZM324.321 540.097H290.729V546.097H324.321V540.097ZM287.729 543.097V593.643H293.729V543.097H287.729ZM290.729 590.643H273.776V596.643H290.729V590.643ZM236.87 678.094V712H242.87V678.094H236.87ZM239.87 709H205.964V715H239.87V709ZM208.964 712V661.141H202.964V712H208.964ZM205.964 664.141H222.917V658.141H205.964V664.141ZM225.917 661.141V627.549H219.917V661.141H225.917ZM222.917 630.549H239.87V624.549H222.917V630.549ZM242.87 627.549V593.643H236.87V627.549H242.87ZM239.87 596.643H256.823V590.643H239.87V596.643ZM259.823 593.643V543.097H253.823V593.643H259.823ZM256.823 546.097H273.776V540.097H256.823V546.097ZM276.776 543.097V509.191H270.776V543.097H276.776ZM273.776 512.191H290.729V506.191H273.776V512.191ZM293.729 509.191V492.238H287.729V509.191H293.729ZM290.729 495.238H324.635V489.238H290.729V495.238ZM321.635 492.238V509.191H327.635V492.238H321.635ZM324.635 512.191H341.274V506.191H324.635V512.191ZM338.274 509.191V543.097H344.274V509.191H338.274ZM341.274 546.097H358.227V540.097H341.274V546.097ZM355.227 543.097V593.643H361.227V543.097H355.227ZM358.227 596.643H375.18V590.643H358.227V596.643ZM372.18 593.643V627.549H378.18V593.643H372.18ZM375.18 630.549H392.133V624.549H375.18V630.549ZM389.133 627.549V661.141H395.133V627.549H389.133ZM392.133 664.141H409.087V658.141H392.133V664.141ZM406.087 661.141V712H412.087V661.141H406.087ZM409.087 709H375.18V715H409.087V709ZM378.18 712V678.094H372.18V712H378.18ZM375.18 675.094H358.227V681.094H375.18V675.094ZM361.227 678.094V661.455H355.227V678.094H361.227ZM358.227 658.455H256.823V664.455H358.227V658.455ZM253.823 661.455V678.094H259.823V661.455H253.823ZM256.823 675.094H239.87V681.094H256.823V675.094ZM429.233 492.238V489.238H426.233V492.238H429.233ZM463.139 492.238H466.139V489.238H463.139V492.238ZM463.139 509.191H460.139V512.191H463.139V509.191ZM480.092 509.191H483.092V506.191H480.092V509.191ZM480.092 543.097H477.092V546.097H480.092V543.097ZM497.045 543.097H500.045V540.097H497.045V543.097ZM497.045 576.689H494.045V579.689H497.045V576.689ZM513.998 576.689H516.998V573.689H513.998V576.689ZM513.998 610.596H510.998V613.596H513.998V610.596ZM547.904 610.596V613.596H550.904V610.596H547.904ZM547.904 576.689V573.689H544.904V576.689H547.904ZM564.858 576.689V579.689H567.858V576.689H564.858ZM564.858 543.097V540.097H561.858V543.097H564.858ZM581.811 543.097V546.097H584.811V543.097H581.811ZM581.811 509.191V506.191H578.811V509.191H581.811ZM598.764 509.191V512.191H601.764V509.191H598.764ZM598.764 492.238V489.238H595.764V492.238H598.764ZM632.67 492.238H635.67V489.238H632.67V492.238ZM632.67 712V715H635.67V712H632.67ZM598.764 712H595.764V715H598.764V712ZM598.764 576.689H601.764V573.689H598.764V576.689ZM581.811 576.689V573.689H578.811V576.689H581.811ZM581.811 610.596V613.596H584.811V610.596H581.811ZM564.858 610.596V607.596H561.858V610.596H564.858ZM564.858 644.502V647.502H567.858V644.502H564.858ZM547.904 644.502V641.502H544.904V644.502H547.904ZM547.904 677.78V680.78H550.904V677.78H547.904ZM513.998 677.78H510.998V680.78H513.998V677.78ZM513.998 644.502H516.998V641.502H513.998V644.502ZM497.045 644.502H494.045V647.502H497.045V644.502ZM497.045 610.596H500.045V607.596H497.045V610.596ZM480.092 610.596H477.092V613.596H480.092V610.596ZM480.092 576.689H483.092V573.689H480.092V576.689ZM463.139 576.689V573.689H460.139V576.689H463.139ZM463.139 712V715H466.139V712H463.139ZM429.233 712H426.233V715H429.233V712ZM429.233 495.238H463.139V489.238H429.233V495.238ZM460.139 492.238V509.191H466.139V492.238H460.139ZM463.139 512.191H480.092V506.191H463.139V512.191ZM477.092 509.191V543.097H483.092V509.191H477.092ZM480.092 546.097H497.045V540.097H480.092V546.097ZM494.045 543.097V576.689H500.045V543.097H494.045ZM497.045 579.689H513.998V573.689H497.045V579.689ZM510.998 576.689V610.596H516.998V576.689H510.998ZM513.998 613.596H547.904V607.596H513.998V613.596ZM550.904 610.596V576.689H544.904V610.596H550.904ZM547.904 579.689H564.858V573.689H547.904V579.689ZM567.858 576.689V543.097H561.858V576.689H567.858ZM564.858 546.097H581.811V540.097H564.858V546.097ZM584.811 543.097V509.191H578.811V543.097H584.811ZM581.811 512.191H598.764V506.191H581.811V512.191ZM601.764 509.191V492.238H595.764V509.191H601.764ZM598.764 495.238H632.67V489.238H598.764V495.238ZM629.67 492.238V712H635.67V492.238H629.67ZM632.67 709H598.764V715H632.67V709ZM601.764 712V576.689H595.764V712H601.764ZM598.764 573.689H581.811V579.689H598.764V573.689ZM578.811 576.689V610.596H584.811V576.689H578.811ZM581.811 607.596H564.858V613.596H581.811V607.596ZM561.858 610.596V644.502H567.858V610.596H561.858ZM564.858 641.502H547.904V647.502H564.858V641.502ZM544.904 644.502V677.78H550.904V644.502H544.904ZM547.904 674.78H513.998V680.78H547.904V674.78ZM516.998 677.78V644.502H510.998V677.78H516.998ZM513.998 641.502H497.045V647.502H513.998V641.502ZM500.045 644.502V610.596H494.045V644.502H500.045ZM497.045 607.596H480.092V613.596H497.045V607.596ZM483.092 610.596V576.689H477.092V610.596H483.092ZM480.092 573.689H463.139V579.689H480.092V573.689ZM460.139 576.689V712H466.139V576.689H460.139ZM463.139 709H429.233V715H463.139V709ZM432.233 712V492.238H426.233V712H432.233ZM652.809 492.238V489.238H649.809V492.238H652.809ZM805.072 492.238H808.072V489.238H805.072V492.238ZM805.072 526.144V529.144H808.072V526.144H805.072ZM686.715 526.144V523.144H683.715V526.144H686.715ZM686.715 576.689H683.715V579.689H686.715V576.689ZM788.119 576.689H791.119V573.689H788.119V576.689ZM788.119 610.596V613.596H791.119V610.596H788.119ZM686.715 610.596V607.596H683.715V610.596H686.715ZM686.715 678.094H683.715V681.094H686.715V678.094ZM805.072 678.094H808.072V675.094H805.072V678.094ZM805.072 712V715H808.072V712H805.072ZM652.809 712H649.809V715H652.809V712ZM652.809 495.238H805.072V489.238H652.809V495.238ZM802.072 492.238V526.144H808.072V492.238H802.072ZM805.072 523.144H686.715V529.144H805.072V523.144ZM683.715 526.144V576.689H689.715V526.144H683.715ZM686.715 579.689H788.119V573.689H686.715V579.689ZM785.119 576.689V610.596H791.119V576.689H785.119ZM788.119 607.596H686.715V613.596H788.119V607.596ZM683.715 610.596V678.094H689.715V610.596H683.715ZM686.715 681.094H805.072V675.094H686.715V681.094ZM802.072 678.094V712H808.072V678.094H802.072ZM805.072 709H652.809V715H805.072V709ZM655.809 712V492.238H649.809V712H655.809Z" fill="black"/>
</g>
</svg>
