<svg width="397" height="407" viewBox="0 0 397 407" fill="none" xmlns="http://www.w3.org/2000/svg">
<g style="mix-blend-mode:overlay">
<path d="M150.641 1.02042L150.5 0.978853L150.359 1.02016L1.85944 44.5202L1.50246 44.6247L1.50001 44.9967L0.500011 196.997H0.5V197V311V311.376L0.861283 311.48L94 338.376V350.5V351.247L94.6904 350.962L102.5 347.747V377.5V377.873L102.857 377.979L126 384.873V388.878C125.466 388.81 124.896 388.848 124.328 388.952C123.513 389.1 122.66 389.39 121.841 389.74C120.203 390.441 118.646 391.412 117.706 392.096L116.822 392.739L117.886 392.987C122.915 394.16 145.44 398.096 195.437 404.496C245.558 410.912 285.506 395.481 299.264 386.925L299.5 386.778V386.5V339.88L346.133 326.982L346.5 326.88V326.5V281.878L395.636 267.981L396 267.878V267.5V116V115.318L395.349 115.523L385.995 118.477L346 106.627V59V58.6262L345.641 58.5204L150.641 1.02042Z" fill="#FF4B00"/>
<path d="M150.641 1.02042L150.5 0.978853L150.359 1.02016L1.85944 44.5202L1.50246 44.6247L1.50001 44.9967L0.500011 196.997H0.5V197V311V311.376L0.861283 311.48L94 338.376V350.5V351.247L94.6904 350.962L102.5 347.747V377.5V377.873L102.857 377.979L126 384.873V388.878C125.466 388.81 124.896 388.848 124.328 388.952C123.513 389.1 122.66 389.39 121.841 389.74C120.203 390.441 118.646 391.412 117.706 392.096L116.822 392.739L117.886 392.987C122.915 394.16 145.44 398.096 195.437 404.496C245.558 410.912 285.506 395.481 299.264 386.925L299.5 386.778V386.5V339.88L346.133 326.982L346.5 326.88V326.5V281.878L395.636 267.981L396 267.878V267.5V116V115.318L395.349 115.523L385.995 118.477L346 106.627V59V58.6262L345.641 58.5204L150.641 1.02042Z" stroke="#D9D9D9"/>
</g>
</svg>
