<svg width="465" height="485" viewBox="0 0 465 485" fill="none" xmlns="http://www.w3.org/2000/svg">
<path fill-rule="evenodd" clip-rule="evenodd" d="M104 261V214L149.5 201V156L199.5 141.5V6L214 1.5L350 42L441 68.5V160V256.686V280V415L406.5 426L315.5 399L258 415V465L188 484L117.5 465L117 413L0.5 378.5V320C19.0107 321.556 63.944 320.12 104 303.337V261Z" fill="#FF4B00"/>
<path d="M104 214L103.863 213.519L103.5 213.623V214H104ZM149.5 201L149.637 201.481L150 201.377V201H149.5ZM149.5 156L149.361 155.52L149 155.624V156H149.5ZM199.5 141.5L199.639 141.98L200 141.876V141.5H199.5ZM199.5 6L199.352 5.52247L199 5.63165V6H199.5ZM214 1.5L214.143 1.0208L213.997 0.977407L213.852 1.02247L214 1.5ZM350 42L349.857 42.4792L349.86 42.4801L350 42ZM441 68.5H441.5V68.1248L441.14 68.0199L441 68.5ZM441 415L441.152 415.476L441.5 415.365V415H441ZM406.5 426L406.358 426.479L406.505 426.523L406.652 426.476L406.5 426ZM315.5 399L315.642 398.521L315.504 398.48L315.366 398.518L315.5 399ZM258 415L257.866 414.518L257.5 414.62V415H258ZM258 465L258.131 465.483L258.5 465.382V465H258ZM188 484L187.87 484.483L188 484.518L188.131 484.483L188 484ZM117.5 465L117 465.005L117.004 465.384L117.37 465.483L117.5 465ZM117 413L117.5 412.995L117.496 412.626L117.142 412.521L117 413ZM0.5 378.5H0V378.873L0.358026 378.979L0.5 378.5ZM0.5 320L0.541869 319.502L0 319.456V320H0.5ZM104 303.337L104.193 303.798L104.5 303.67V303.337H104ZM462 231.5L462.462 231.692L462.462 231.692L462 231.5ZM103.5 214V261H104.5V214H103.5ZM149.363 200.519L103.863 213.519L104.137 214.481L149.637 201.481L149.363 200.519ZM149 156V201H150V156H149ZM199.361 141.02L149.361 155.52L149.639 156.48L199.639 141.98L199.361 141.02ZM199 6V141.5H200V6H199ZM213.852 1.02247L199.352 5.52247L199.648 6.47753L214.148 1.97753L213.852 1.02247ZM350.143 41.5208L214.143 1.0208L213.857 1.9792L349.857 42.4792L350.143 41.5208ZM441.14 68.0199L350.14 41.5199L349.86 42.4801L440.86 68.9801L441.14 68.0199ZM441.5 160V68.5H440.5V160H441.5ZM441.5 256.686V160H440.5V256.686H441.5ZM440.5 256.686V280H441.5V256.686H440.5ZM440.5 280V415H441.5V280H440.5ZM440.848 414.524L406.348 425.524L406.652 426.476L441.152 415.476L440.848 414.524ZM406.642 425.521L315.642 398.521L315.358 399.479L406.358 426.479L406.642 425.521ZM315.366 398.518L257.866 414.518L258.134 415.482L315.634 399.482L315.366 398.518ZM257.5 415V465H258.5V415H257.5ZM257.869 464.517L187.869 483.517L188.131 484.483L258.131 465.483L257.869 464.517ZM188.13 483.517L117.63 464.517L117.37 465.483L187.87 484.483L188.13 483.517ZM118 464.995L117.5 412.995L116.5 413.005L117 465.005L118 464.995ZM117.142 412.521L0.641974 378.021L0.358026 378.979L116.858 413.479L117.142 412.521ZM1 378.5V320H0V378.5H1ZM0.458131 320.498C19.0233 322.058 64.0424 320.621 104.193 303.798L103.807 302.876C63.8457 319.619 18.9981 321.053 0.541869 319.502L0.458131 320.498ZM103.5 261V303.337H104.5V261H103.5ZM215.854 1.47832L365.301 46.9765L365.592 46.0198L216.146 0.521676L215.854 1.47832ZM441.247 257.617C452.725 251.083 457.696 243.128 462.462 231.692L461.538 231.308C456.819 242.633 451.965 250.365 440.753 256.748L441.247 257.617ZM462.462 231.692C464.49 226.823 464.851 222.811 464.032 219.529C463.211 216.242 461.223 213.75 458.669 211.895C453.587 208.206 446.214 207 441 207V208C446.12 208 453.246 209.194 458.081 212.705C460.486 214.45 462.309 216.758 463.062 219.771C463.815 222.789 463.51 226.577 461.538 231.308L462.462 231.692Z" fill="black"/>
</svg>
